<mxfile host="app.diagrams.net" modified="2024-04-29T10:28:24.422Z" agent="Mozilla/5.0 (Macintosh; Intel Mac OS X 10_15_7) AppleWebKit/537.36 (KHTML, like Gecko) Chrome/124.0.0.0 Safari/537.36" etag="gBpqY4BxxrD6qtBGcV1R" version="24.3.0" type="github">
  <diagram id="R2lEEEUBdFMjLlhIrx00" name="Page-1">
    <mxGraphModel dx="892" dy="518" grid="1" gridSize="10" guides="1" tooltips="1" connect="1" arrows="1" fold="1" page="1" pageScale="1" pageWidth="850" pageHeight="1100" math="0" shadow="0" extFonts="Permanent Marker^https://fonts.googleapis.com/css?family=Permanent+Marker">
      <root>
        <mxCell id="0" />
        <mxCell id="1" parent="0" />
        <mxCell id="Lb9zDCv2HLogKtjAviVv-11" value="" style="edgeStyle=orthogonalEdgeStyle;rounded=0;orthogonalLoop=1;jettySize=auto;html=1;" edge="1" parent="1" source="Lb9zDCv2HLogKtjAviVv-7" target="Lb9zDCv2HLogKtjAviVv-8">
          <mxGeometry relative="1" as="geometry" />
        </mxCell>
        <mxCell id="Lb9zDCv2HLogKtjAviVv-7" value="CUSTOMER" style="whiteSpace=wrap;html=1;align=center;" vertex="1" parent="1">
          <mxGeometry x="160" y="70" width="190" height="40" as="geometry" />
        </mxCell>
        <mxCell id="Lb9zDCv2HLogKtjAviVv-8" value="&lt;span style=&quot;border-bottom: 1px dotted&quot;&gt;COMPANY NAME&lt;/span&gt;&lt;div&gt;&lt;span style=&quot;border-bottom: 1px dotted&quot;&gt;ADDRESS&lt;/span&gt;&lt;/div&gt;&lt;div&gt;&lt;span style=&quot;border-bottom: 1px dotted&quot;&gt;TAX NUMBER&lt;/span&gt;&lt;/div&gt;" style="ellipse;whiteSpace=wrap;html=1;align=center;" vertex="1" parent="1">
          <mxGeometry x="150" y="150" width="210" height="110" as="geometry" />
        </mxCell>
        <mxCell id="Lb9zDCv2HLogKtjAviVv-12" value="" style="edgeStyle=orthogonalEdgeStyle;rounded=0;orthogonalLoop=1;jettySize=auto;html=1;" edge="1" parent="1" source="Lb9zDCv2HLogKtjAviVv-13" target="Lb9zDCv2HLogKtjAviVv-14">
          <mxGeometry relative="1" as="geometry" />
        </mxCell>
        <mxCell id="Lb9zDCv2HLogKtjAviVv-13" value="PRODUCT" style="whiteSpace=wrap;html=1;align=center;" vertex="1" parent="1">
          <mxGeometry x="470" y="70" width="190" height="40" as="geometry" />
        </mxCell>
        <mxCell id="Lb9zDCv2HLogKtjAviVv-14" value="&lt;div&gt;&lt;div&gt;norm - en 10219, en 10210&lt;/div&gt;&lt;/div&gt;type or category (square, rectangular, round)&lt;div&gt;Diameter for round&amp;nbsp;&lt;/div&gt;&lt;div&gt;width/height for squar and rectangular&lt;/div&gt;&lt;div&gt;thickness&lt;/div&gt;&lt;div&gt;&lt;div&gt;&lt;br&gt;&lt;/div&gt;&lt;div&gt;&lt;br&gt;&lt;/div&gt;&lt;/div&gt;" style="ellipse;whiteSpace=wrap;html=1;align=center;" vertex="1" parent="1">
          <mxGeometry x="410" y="140" width="310" height="160" as="geometry" />
        </mxCell>
        <mxCell id="Lb9zDCv2HLogKtjAviVv-15" value="" style="edgeStyle=orthogonalEdgeStyle;rounded=0;orthogonalLoop=1;jettySize=auto;html=1;" edge="1" parent="1" source="Lb9zDCv2HLogKtjAviVv-16" target="Lb9zDCv2HLogKtjAviVv-17">
          <mxGeometry relative="1" as="geometry" />
        </mxCell>
        <mxCell id="Lb9zDCv2HLogKtjAviVv-16" value="ORDER" style="whiteSpace=wrap;html=1;align=center;" vertex="1" parent="1">
          <mxGeometry x="160" y="330" width="190" height="40" as="geometry" />
        </mxCell>
        <mxCell id="Lb9zDCv2HLogKtjAviVv-17" value="ORDER NUMBER&amp;nbsp;&lt;div&gt;DATE&lt;/div&gt;&lt;div&gt;&lt;br&gt;&lt;/div&gt;" style="ellipse;whiteSpace=wrap;html=1;align=center;" vertex="1" parent="1">
          <mxGeometry x="150" y="410" width="210" height="80" as="geometry" />
        </mxCell>
      </root>
    </mxGraphModel>
  </diagram>
</mxfile>
